<svg version="1.1" id="Layer_1" xmlns="http://www.w3.org/2000/svg" xmlns:xlink="http://www.w3.org/1999/xlink" x="0px"
	y="0px" width="100%" viewBox="0 0 250 250" enable-background="new 0 0 250 250" xml:space="preserve">
	<path fill="#000000" opacity="0.000000" stroke="none" d="
M166.000000,251.000000 
	C110.666672,251.000000 55.833340,251.000000 1.000007,251.000000 
	C1.000005,167.666672 1.000005,84.333351 1.000002,1.000019 
	C84.333321,1.000012 167.666641,1.000012 250.999969,1.000006 
	C250.999969,84.333313 250.999969,167.666626 250.999985,250.999969 
	C222.833328,251.000000 194.666672,251.000000 166.000000,251.000000 
M118.189537,166.784424 
	C120.678040,172.452194 123.752632,177.765167 122.191757,184.611313 
	C121.119865,189.312759 123.909172,192.664047 127.401627,192.562729 
	C132.368301,192.418640 131.757629,188.526001 131.977051,185.284576 
	C132.572433,176.490219 132.353714,167.791382 129.417038,159.093704 
	C133.417267,157.474609 137.416840,155.853867 141.417877,154.236771 
	C148.622894,151.324768 150.231522,148.819778 150.504471,140.725616 
	C153.758636,139.137299 156.961655,137.431183 160.279709,135.989960 
	C164.593109,134.116394 166.474945,130.605484 166.564590,126.271507 
	C166.599213,124.597733 165.111816,122.892479 164.317841,121.201569 
	C162.894272,122.685020 160.540939,123.993500 160.222626,125.684967 
	C159.292191,130.629044 157.065369,133.900223 152.005844,134.128265 
	C152.771011,130.864471 153.470566,127.583572 154.315720,124.340622 
	C155.823807,118.553947 154.577042,115.972672 148.668365,115.116608 
	C142.555023,114.230873 136.322708,114.166092 130.345505,113.149963 
	C133.864395,112.116081 137.331940,110.496223 140.913925,110.182320 
	C146.631668,109.681213 152.425491,110.048309 157.309937,110.048309 
	C155.713425,106.643517 153.632812,102.206299 151.290817,97.211655 
	C148.831909,97.934669 145.502747,98.833321 142.226425,99.894958 
	C136.776993,101.660759 131.660858,101.765648 126.480240,98.591171 
	C118.165161,93.496017 109.859764,88.262695 101.078735,84.076973 
	C85.100502,76.460503 69.161407,68.410095 50.517632,69.700066 
	C42.034832,70.286987 33.527683,70.502571 26.018215,74.997246 
	C21.314220,77.812759 20.276028,82.929932 23.936365,86.345375 
	C33.777237,95.527847 44.936226,102.594063 58.455280,105.049240 
	C63.974056,106.051506 69.569351,106.632401 74.330902,107.293991 
	C68.365028,108.864815 61.812359,110.541756 55.288822,112.325264 
	C51.126400,113.463249 46.976254,114.664421 42.874424,116.002274 
	C31.806801,119.612083 22.782999,126.193886 15.785656,135.426086 
	C12.404522,139.887115 13.115229,144.096069 18.108130,146.584305 
	C23.080368,149.062210 28.559498,150.549744 33.865177,152.325729 
	C42.585506,155.244705 50.206097,153.943451 56.246204,146.402008 
	C57.121677,145.308929 58.743793,144.813843 59.988483,144.779877 
	C54.670242,157.164444 48.849083,169.364838 44.220833,182.002106 
	C41.407364,189.684189 42.551929,190.969955 48.217167,194.810974 
	C49.355122,197.735748 50.250237,200.786346 51.685696,203.556992 
	C54.076984,208.172546 58.357349,209.746429 62.883530,207.462967 
	C71.413887,203.159393 78.866966,197.502441 84.107628,189.589813 
	C86.380760,188.369415 88.653893,187.149017 91.302994,186.539078 
	C91.517151,196.165390 89.424240,205.981079 92.625763,215.362167 
	C93.361717,215.424210 94.097672,215.486252 94.833626,215.548294 
	C97.580200,202.033188 100.326775,188.518082 103.813095,175.047455 
	C108.505310,172.079178 113.197533,169.110901 118.189537,166.784424 
M199.608307,92.058319 
	C198.091751,89.890358 196.798523,87.505272 194.978104,85.632690 
	C193.813797,84.435005 191.289429,82.909309 190.375229,83.398872 
	C185.972473,85.756523 182.480682,83.078453 178.553558,82.247131 
	C167.305634,79.866096 156.583786,83.801445 158.095413,97.874084 
	C159.205338,108.206993 164.124786,116.954498 173.117126,122.449509 
	C183.083282,128.539581 183.958008,128.062210 192.028214,118.710785 
	C198.130981,120.125389 199.306229,119.825035 200.709091,116.300720 
	C203.876923,108.342453 204.010941,100.464859 199.608307,92.058319 
M224.467957,70.946404 
	C230.285202,65.751755 232.925949,65.713890 236.796265,71.855598 
	C237.837326,68.800369 238.630249,66.473389 239.423172,64.146408 
	C237.132416,63.437622 234.885742,62.381233 232.542786,62.083965 
	C224.924332,61.117359 219.305649,65.477440 213.828445,69.786400 
	C209.965347,72.825531 206.830124,76.528419 207.084747,81.900055 
	C207.147415,83.222198 207.869217,84.513092 208.287994,85.818352 
	C209.604218,85.275887 211.272980,85.072189 212.175888,84.132568 
	C216.179794,79.965843 219.963913,75.587944 224.467957,70.946404 
M190.926422,58.657093 
	C190.369308,60.744339 189.398987,62.822651 189.353607,64.920959 
	C189.288391,67.937141 186.954605,72.392303 191.544785,73.461861 
	C196.051666,74.512024 196.400299,69.779541 197.302643,66.842873 
	C199.795792,58.729034 201.880768,50.473740 209.985046,45.753349 
	C210.258469,45.594090 210.216400,44.893143 210.324524,44.431236 
	C202.765076,43.380028 195.223557,48.710667 190.926422,58.657093 
M179.275589,160.770157 
	C180.466522,160.770157 181.657455,160.770157 182.848389,160.770157 
	C182.983978,160.314011 183.119583,159.857849 183.255173,159.401703 
	C179.242767,157.264709 175.036362,155.418869 171.271347,152.910553 
	C167.339096,150.290848 163.657730,147.218506 160.210449,143.978302 
	C158.430847,142.305588 157.111786,140.041458 154.577484,142.219009 
	C152.132355,144.319946 152.875473,146.549927 155.081345,148.565613 
	C161.832321,154.734512 169.380432,159.308533 179.275589,160.770157 
M191.416260,147.003387 
	C190.368347,145.827164 189.526230,144.297363 188.232101,143.544189 
	C184.974060,141.648071 181.418320,140.263840 178.158173,138.370834 
	C174.873138,136.463364 171.800537,134.190018 168.293503,131.849121 
	C166.216568,136.972122 167.143677,140.266815 170.675079,142.849426 
	C176.763779,147.302261 183.516296,148.770203 191.416260,147.003387 
z" />
	<path fill="#1F1D1B" opacity="1.000000" stroke="none" d="
M103.073349,175.002975 
	C100.326775,188.518082 97.580200,202.033188 94.833626,215.548294 
	C94.097672,215.486252 93.361717,215.424210 92.625763,215.362167 
	C89.424240,205.981079 91.517151,196.165390 91.158508,185.840118 
	C91.378044,182.491455 91.742073,179.841736 92.106094,177.192017 
	C91.734367,177.062210 91.362633,176.932404 90.990906,176.802612 
	C88.581268,180.874985 86.171623,184.947372 83.761978,189.019760 
	C78.866966,197.502441 71.413887,203.159393 62.883530,207.462967 
	C58.357349,209.746429 54.076984,208.172546 51.685696,203.556992 
	C50.250237,200.786346 49.355122,197.735748 48.160530,194.012466 
	C48.110546,190.069122 47.266296,186.618958 48.266846,183.830780 
	C53.398075,169.531830 55.925308,154.212784 64.070763,140.625519 
	C62.720642,141.764359 61.370518,142.903198 60.020401,144.042053 
	C58.743793,144.813843 57.121677,145.308929 56.246204,146.402008 
	C50.206097,153.943451 42.585506,155.244705 33.865177,152.325729 
	C28.559498,150.549744 23.080368,149.062210 18.108130,146.584305 
	C13.115229,144.096069 12.404522,139.887115 15.785656,135.426086 
	C22.782999,126.193886 31.806801,119.612083 42.874424,116.002274 
	C46.976254,114.664421 51.126400,113.463249 55.288822,112.325264 
	C61.812359,110.541756 68.365028,108.864815 74.330902,107.293991 
	C69.569351,106.632401 63.974056,106.051506 58.455280,105.049240 
	C44.936226,102.594063 33.777237,95.527847 23.936365,86.345375 
	C20.276028,82.929932 21.314220,77.812759 26.018215,74.997246 
	C33.527683,70.502571 42.034832,70.286987 50.517632,69.700066 
	C69.161407,68.410095 85.100502,76.460503 101.078735,84.076973 
	C109.859764,88.262695 118.165161,93.496017 126.480240,98.591171 
	C131.660858,101.765648 136.776993,101.660759 142.226425,99.894958 
	C145.502747,98.833321 148.831909,97.934669 151.290817,97.211655 
	C153.632812,102.206299 155.713425,106.643517 157.309937,110.048309 
	C152.425491,110.048309 146.631668,109.681213 140.913925,110.182320 
	C137.331940,110.496223 133.864395,112.116081 129.821106,113.487213 
	C126.482918,118.934677 128.344025,123.288841 131.723145,127.192856 
	C133.766190,129.553253 136.214600,131.562897 138.482178,133.728790 
	C144.244904,139.233032 145.597504,139.353317 152.007462,134.935150 
	C157.065369,133.900223 159.292191,130.629044 160.222626,125.684967 
	C160.540939,123.993500 162.894272,122.685020 164.317841,121.201569 
	C165.111816,122.892479 166.599213,124.597733 166.564590,126.271507 
	C166.474945,130.605484 164.593109,134.116394 160.279709,135.989960 
	C156.961655,137.431183 153.758636,139.137299 149.884399,141.037354 
	C143.847366,148.766495 143.863525,148.690338 135.267075,146.865463 
	C134.181961,146.635117 132.485458,147.374969 131.640518,148.228134 
	C125.382141,154.547424 118.414246,159.036011 109.079445,159.283417 
	C104.461250,159.405823 100.900230,161.921387 99.040825,166.843033 
	C100.976204,166.379242 102.481323,166.018570 105.095490,165.392120 
	C104.316719,169.093475 103.695030,172.048218 103.073349,175.002975 
M67.651367,79.536621 
	C56.526512,78.691620 45.477173,79.333954 34.526512,80.248611 
	C34.466999,81.547089 34.339218,81.925598 34.459953,82.191086 
	C34.729870,82.784630 35.104431,83.334732 35.469814,83.880112 
	C41.875446,93.441460 51.841789,97.561531 62.156288,100.832672 
	C75.935440,105.202599 90.262482,105.116226 104.519157,104.921898 
	C109.123924,104.859123 113.716789,103.923569 118.315102,103.387260 
	C102.847176,92.036819 87.314606,81.981430 67.651367,79.536621 
M90.996758,110.964722 
	C83.963303,111.742828 76.560562,111.390388 69.975525,113.541321 
	C57.406109,117.646973 45.192291,122.927032 33.057419,128.237305 
	C27.809395,130.533859 26.360781,135.233780 28.391340,139.266418 
	C31.339546,145.121490 41.994755,148.723587 47.905949,145.602982 
	C53.008625,142.909180 57.751289,139.505203 62.937794,137.005951 
	C68.717255,134.220978 74.644829,132.109192 78.861275,126.675156 
	C84.507210,119.398819 93.040092,117.986763 101.576408,116.990189 
	C106.031303,116.470100 110.480904,115.904594 114.932892,115.359604 
	C114.944138,114.640991 114.955376,113.922379 114.966614,113.203766 
	C107.227180,112.446716 99.487740,111.689659 90.996758,110.964722 
M127.651588,138.801102 
	C125.333641,134.825180 122.588890,131.031937 120.791687,126.833130 
	C117.610855,119.401756 115.683678,118.326477 108.023865,121.633621 
	C105.931877,122.536842 103.519913,123.701866 102.351906,125.471054 
	C101.086143,127.388298 99.894386,130.803696 100.772820,132.430359 
	C104.145790,138.676361 108.256218,144.541687 112.365509,150.355392 
	C113.062981,151.342163 115.569481,152.207153 116.450821,151.714951 
	C121.321831,148.994598 125.948288,145.836365 130.898087,142.675217 
	C129.964203,141.558655 129.036804,140.449814 127.651588,138.801102 
M84.515297,144.000046 
	C80.928169,138.933868 77.394699,137.423950 74.428452,139.689728 
	C68.657951,144.097534 66.942963,154.421097 71.460098,160.038269 
	C74.739128,164.115814 78.645340,167.688995 80.564560,169.698990 
	C84.984909,165.267105 89.013542,161.227982 92.935654,157.295639 
	C91.074242,154.363602 87.986450,149.499786 84.515297,144.000046 
M69.338951,190.105789 
	C70.660332,189.661438 72.540283,189.616226 73.197105,188.697006 
	C75.079033,186.063293 76.465088,183.075272 77.617714,180.998428 
	C71.803665,175.491882 66.562935,170.528366 61.349899,165.591064 
	C55.026466,173.471939 55.283615,178.313278 62.811935,185.208694 
	C64.639603,186.882706 66.738380,188.260727 69.338951,190.105789 
z" />
	<path fill="#1C1A1A" opacity="1.000000" stroke="none" d="
M199.781067,92.394165 
	C204.010941,100.464859 203.876923,108.342453 200.709091,116.300720 
	C199.306229,119.825035 198.130981,120.125389 192.028214,118.710785 
	C183.958008,128.062210 183.083282,128.539581 173.117126,122.449509 
	C164.124786,116.954498 159.205338,108.206993 158.095413,97.874084 
	C156.583786,83.801445 167.305634,79.866096 178.553558,82.247131 
	C182.480682,83.078453 185.972473,85.756523 190.375229,83.398872 
	C191.289429,82.909309 193.813797,84.435005 194.978104,85.632690 
	C196.798523,87.505272 198.091751,89.890358 199.781067,92.394165 
z" />
	<path fill="#FACD21" opacity="1.000000" stroke="none" d="
M152.006653,134.531708 
	C145.597504,139.353317 144.244904,139.233032 138.482178,133.728790 
	C136.214600,131.562897 133.766190,129.553253 131.723145,127.192856 
	C128.344025,123.288841 126.482918,118.934677 129.719574,113.783325 
	C136.322708,114.166092 142.555023,114.230873 148.668365,115.116608 
	C154.577042,115.972672 155.823807,118.553947 154.315720,124.340622 
	C153.470566,127.583572 152.771011,130.864471 152.006653,134.531708 
z" />
	<path fill="#F5CA22" opacity="1.000000" stroke="none" d="
M103.443222,175.025208 
	C103.695030,172.048218 104.316719,169.093475 105.095490,165.392120 
	C102.481323,166.018570 100.976204,166.379242 99.040825,166.843033 
	C100.900230,161.921387 104.461250,159.405823 109.079445,159.283417 
	C118.414246,159.036011 125.382141,154.547424 131.640518,148.228134 
	C132.485458,147.374969 134.181961,146.635117 135.267075,146.865463 
	C143.863525,148.690338 143.847366,148.766495 149.569275,141.204559 
	C150.231522,148.819778 148.622894,151.324768 141.417877,154.236771 
	C137.416840,155.853867 133.417267,157.474609 128.763153,159.257751 
	C125.629906,156.460052 123.028702,158.116959 120.339729,159.102600 
	C116.538712,160.495834 118.234413,163.638947 117.889748,166.142624 
	C113.197533,169.110901 108.505310,172.079178 103.443222,175.025208 
z" />
	<path fill="#1F1D1B" opacity="1.000000" stroke="none" d="
M118.039642,166.463531 
	C118.234413,163.638947 116.538712,160.495834 120.339729,159.102600 
	C123.028702,158.116959 125.629906,156.460052 128.470795,159.459595 
	C132.353714,167.791382 132.572433,176.490219 131.977051,185.284576 
	C131.757629,188.526001 132.368301,192.418640 127.401627,192.562729 
	C123.909172,192.664047 121.119865,189.312759 122.191757,184.611313 
	C123.752632,177.765167 120.678040,172.452194 118.039642,166.463531 
z" />
	<path fill="#211E1D" opacity="1.000000" stroke="none" d="
M224.147751,71.116425 
	C219.963913,75.587944 216.179794,79.965843 212.175888,84.132568 
	C211.272980,85.072189 209.604218,85.275887 208.287994,85.818352 
	C207.869217,84.513092 207.147415,83.222198 207.084747,81.900055 
	C206.830124,76.528419 209.965347,72.825531 213.828445,69.786400 
	C219.305649,65.477440 224.924332,61.117359 232.542786,62.083965 
	C234.885742,62.381233 237.132416,63.437622 239.423172,64.146408 
	C238.630249,66.473389 237.837326,68.800369 236.796265,71.855598 
	C232.925949,65.713890 230.285202,65.751755 224.147751,71.116425 
z" />
	<path fill="#201D1C" opacity="1.000000" stroke="none" d="
M191.018005,58.273972 
	C195.223557,48.710667 202.765076,43.380028 210.324524,44.431236 
	C210.216400,44.893143 210.258469,45.594090 209.985046,45.753349 
	C201.880768,50.473740 199.795792,58.729034 197.302643,66.842873 
	C196.400299,69.779541 196.051666,74.512024 191.544785,73.461861 
	C186.954605,72.392303 189.288391,67.937141 189.353607,64.920959 
	C189.398987,62.822651 190.369308,60.744339 191.018005,58.273972 
z" />
	<path fill="#F8CD2B" opacity="1.000000" stroke="none" d="
M60.004440,144.410950 
	C61.370518,142.903198 62.720642,141.764359 64.070763,140.625519 
	C55.925308,154.212784 53.398075,169.531830 48.266846,183.830780 
	C47.266296,186.618958 48.110546,190.069122 48.039215,193.677856 
	C42.551929,190.969955 41.407364,189.684189 44.220833,182.002106 
	C48.849083,169.364838 54.670242,157.164444 60.004440,144.410950 
z" />
	<path fill="#201D1C" opacity="1.000000" stroke="none" d="
M178.946182,160.685104 
	C169.380432,159.308533 161.832321,154.734512 155.081345,148.565613 
	C152.875473,146.549927 152.132355,144.319946 154.577484,142.219009 
	C157.111786,140.041458 158.430847,142.305588 160.210449,143.978302 
	C163.657730,147.218506 167.339096,150.290848 171.271347,152.910553 
	C175.036362,155.418869 179.242767,157.264709 183.255173,159.401703 
	C183.119583,159.857849 182.983978,160.314011 182.848389,160.770157 
	C181.657455,160.770157 180.466522,160.770157 178.946182,160.685104 
z" />
	<path fill="#1E1C1B" opacity="1.000000" stroke="none" d="
M191.163788,147.138916 
	C183.516296,148.770203 176.763779,147.302261 170.675079,142.849426 
	C167.143677,140.266815 166.216568,136.972122 168.293503,131.849121 
	C171.800537,134.190018 174.873138,136.463364 178.158173,138.370834 
	C181.418320,140.263840 184.974060,141.648071 188.232101,143.544189 
	C189.526230,144.297363 190.368347,145.827164 191.163788,147.138916 
z" />
	<path fill="#EAC123" opacity="1.000000" stroke="none" d="
M83.934799,189.304779 
	C86.171623,184.947372 88.581268,180.874985 90.990906,176.802612 
	C91.362633,176.932404 91.734367,177.062210 92.106094,177.192017 
	C91.742073,179.841736 91.378044,182.491455 90.970528,185.534897 
	C88.653893,187.149017 86.380760,188.369415 83.934799,189.304779 
z" />
	<path fill="#000000" opacity="0.000000" stroke="none" d="
M67.961441,79.533882 
	C87.314606,81.981430 102.847176,92.036819 118.315102,103.387260 
	C113.716789,103.923569 109.123924,104.859123 104.519157,104.921898 
	C90.262482,105.116226 75.935440,105.202599 62.156288,100.832672 
	C51.841789,97.561531 41.875446,93.441460 35.469814,83.880112 
	C35.104431,83.334732 34.729870,82.784630 34.459953,82.191086 
	C34.339218,81.925598 34.466999,81.547089 34.526512,80.248611 
	C45.477173,79.333954 56.526512,78.691620 67.961441,79.533882 
z" />
	<path fill="#000000" opacity="0.000000" stroke="none" d="
M91.372528,110.948669 
	C99.487740,111.689659 107.227180,112.446716 114.966614,113.203766 
	C114.955376,113.922379 114.944138,114.640991 114.932892,115.359604 
	C110.480904,115.904594 106.031303,116.470100 101.576408,116.990189 
	C93.040092,117.986763 84.507210,119.398819 78.861275,126.675156 
	C74.644829,132.109192 68.717255,134.220978 62.937794,137.005951 
	C57.751289,139.505203 53.008625,142.909180 47.905949,145.602982 
	C41.994755,148.723587 31.339546,145.121490 28.391340,139.266418 
	C26.360781,135.233780 27.809395,130.533859 33.057419,128.237305 
	C45.192291,122.927032 57.406109,117.646973 69.975525,113.541321 
	C76.560562,111.390388 83.963303,111.742828 91.372528,110.948669 
z" />
	<path fill="#F8CC21" opacity="1.000000" stroke="none" d="
M127.880493,139.071045 
	C129.036804,140.449814 129.964203,141.558655 130.898087,142.675217 
	C125.948288,145.836365 121.321831,148.994598 116.450821,151.714951 
	C115.569481,152.207153 113.062981,151.342163 112.365509,150.355392 
	C108.256218,144.541687 104.145790,138.676361 100.772820,132.430359 
	C99.894386,130.803696 101.086143,127.388298 102.351906,125.471054 
	C103.519913,123.701866 105.931877,122.536842 108.023865,121.633621 
	C115.683678,118.326477 117.610855,119.401756 120.791687,126.833130 
	C122.588890,131.031937 125.333641,134.825180 127.880493,139.071045 
z" />
	<path fill="#F7CB21" opacity="1.000000" stroke="none" d="
M84.706985,144.318024 
	C87.986450,149.499786 91.074242,154.363602 92.935654,157.295639 
	C89.013542,161.227982 84.984909,165.267105 80.564560,169.698990 
	C78.645340,167.688995 74.739128,164.115814 71.460098,160.038269 
	C66.942963,154.421097 68.657951,144.097534 74.428452,139.689728 
	C77.394699,137.423950 80.928169,138.933868 84.706985,144.318024 
z" />
	<path fill="#F7CB21" opacity="1.000000" stroke="none" d="
M69.025719,189.940323 
	C66.738380,188.260727 64.639603,186.882706 62.811935,185.208694 
	C55.283615,178.313278 55.026466,173.471939 61.349899,165.591064 
	C66.562935,170.528366 71.803665,175.491882 77.617714,180.998428 
	C76.465088,183.075272 75.079033,186.063293 73.197105,188.697006 
	C72.540283,189.616226 70.660332,189.661438 69.025719,189.940323 
z" />
</svg>